<svg width="92" height="58" viewBox="0 0 92 58" fill="none" xmlns="http://www.w3.org/2000/svg">
<g clip-path="url(#clip0_32_353)">
<path d="M91.5136 45.9735C86.4653 40.9526 80.0926 37.7535 73.082 36.7216C72.1877 36.5897 71.355 37.2172 71.2259 38.1133C71.0953 39.0112 71.7157 39.8492 72.6094 39.9813C78.3431 40.8248 83.6345 43.2961 87.9637 47.1439C82.6381 51.8698 75.8 54.5337 68.6148 54.6644C61.7844 54.7931 55.1883 52.6145 49.8352 48.52C66.1433 46.412 78.8761 32.386 78.967 15.5232C78.9695 15.0864 78.7947 14.6585 78.4889 14.3508C78.1598 14.0178 77.7175 13.836 77.2926 13.8671C70.3474 13.9111 63.7147 16.0946 58.1099 20.1826C57.3793 20.7166 57.2167 21.7486 57.7472 22.4832C58.0044 22.8386 58.3837 23.0725 58.8153 23.1417C59.2471 23.2109 59.6813 23.1069 60.0356 22.8483C64.6155 19.5069 69.9923 17.5686 75.633 17.2181C75.1702 24.6792 71.9608 31.6528 66.5417 36.9326C61.8507 41.5034 55.9341 44.3708 49.5838 45.2253C59.6411 32.1615 58.8393 13.2549 47.1073 1.332C46.8084 1.02794 46.3837 0.853638 45.9423 0.853638C45.501 0.853638 45.0766 1.02794 44.7778 1.33166C39.7833 6.40726 36.6009 12.8138 35.5753 19.8594C35.4446 20.7575 36.0649 21.5955 36.9629 21.7279C37.8566 21.8546 38.6874 21.2298 38.8171 20.3363C39.6564 14.5734 42.1145 9.25372 45.9412 4.90102C50.8241 10.4702 53.4281 17.6451 53.29 25.1989C53.1702 31.7364 50.9976 37.9482 47.1143 43.0558C45.0354 26.7973 31.2533 14.0462 14.6901 13.8746C14.2431 13.8716 13.8266 14.0392 13.5131 14.351C13.2047 14.6582 13.0276 15.0848 13.0276 15.5215V18.5782C13.0276 18.6322 13.0302 18.6869 13.036 18.7452C13.6031 24.3472 15.6026 29.7493 18.8181 34.3679C19.3343 35.1104 20.3568 35.2923 21.1 34.7729C21.4583 34.5207 21.6978 34.1432 21.7736 33.7101C21.8498 33.2767 21.7536 32.8397 21.5026 32.4793C18.6233 28.3439 16.8262 23.5085 16.304 18.4936V17.2322C23.6407 17.7231 30.5007 20.9551 35.6924 26.3858C40.178 31.0775 42.9938 36.9794 43.8368 43.3036C30.9348 33.3135 12.2367 34.2975 0.490647 45.8639C0.176369 46.1745 0.0021852 46.5894 2.63873e-05 47.0308C-0.0024733 47.4682 0.172732 47.8963 0.480079 48.2043L2.62367 50.3586C2.66356 50.3999 2.70525 50.4378 2.7532 50.4776C8.61213 55.2781 16.0152 57.922 23.5997 57.9217C23.6005 57.9217 23.6019 57.9217 23.6024 57.9217H23.6632C29.5908 57.9171 35.4043 56.3162 40.4752 53.2919C40.8514 53.0675 41.1184 52.7089 41.2266 52.2828C41.3351 51.8563 41.2715 51.4131 41.0487 51.0353C40.826 50.6571 40.4697 50.3886 40.0456 50.2798C39.6208 50.1701 39.1792 50.2345 38.8029 50.4588C34.2407 53.1799 29.0081 54.6216 23.6686 54.6279H23.5847C16.7855 54.6243 10.1472 52.2623 4.88771 47.9762L3.99986 47.0843C9.53837 42.2068 16.6473 39.5979 24.1258 39.7166C31.871 39.8421 39.1382 42.8945 44.5888 48.3115C44.5907 48.3134 44.5926 48.3151 44.5944 48.3169C44.5974 48.3199 44.6014 48.3241 44.6046 48.3271C50.8593 54.5426 59.1833 57.9651 68.0471 57.9651C68.0482 57.9651 68.0504 57.9651 68.0515 57.9651C76.9239 57.9648 85.2567 54.5376 91.5149 48.3148C91.8227 48.0074 92 47.5807 92 47.1442C92 46.7075 91.8227 46.2808 91.5136 45.9735Z" fill="#400186"/>
</g>
<defs>
<clipPath id="clip0_32_353">
<rect width="92" height="58" fill="white"/>
</clipPath>
</defs>
</svg>
