<svg width="32" height="32" viewBox="0 0 32 32" fill="none" xmlns="http://www.w3.org/2000/svg">
<path d="M29.3308 17.3347V12.0013C29.3308 5.33464 26.6641 2.66797 19.9974 2.66797H11.9974C5.33073 2.66797 2.66406 5.33464 2.66406 12.0013V20.0013C2.66406 26.668 5.33073 29.3347 11.9974 29.3347H17.3308" stroke="white" stroke-width="2.66667" stroke-linecap="round" stroke-linejoin="round"/>
<path d="M29.3308 17.3347V12.0013C29.3308 5.33464 26.6641 2.66797 19.9974 2.66797H11.9974C5.33073 2.66797 2.66406 5.33464 2.66406 12.0013V20.0013C2.66406 26.668 5.33073 29.3347 11.9974 29.3347H17.3308" stroke="white" stroke-width="2.66667" stroke-linecap="round" stroke-linejoin="round"/>
<path d="M29.3308 17.3347V12.0013C29.3308 5.33464 26.6641 2.66797 19.9974 2.66797H11.9974C5.33073 2.66797 2.66406 5.33464 2.66406 12.0013V20.0013C2.66406 26.668 5.33073 29.3347 11.9974 29.3347H17.3308" stroke="white" stroke-width="2.66667" stroke-linecap="round" stroke-linejoin="round"/>
<path d="M21.3359 25.908L23.4426 28.0013L28.0026 22.668" stroke="white" stroke-width="2.66667" stroke-linecap="round" stroke-linejoin="round"/>
<path d="M9.33594 14V18" stroke="white" stroke-width="2.66667" stroke-linecap="round" stroke-linejoin="round"/>
<path d="M16 14V18" stroke="white" stroke-width="2.66667" stroke-linecap="round" stroke-linejoin="round"/>
<path d="M22.6641 14V18" stroke="white" stroke-width="2.66667" stroke-linecap="round" stroke-linejoin="round"/>
</svg>
