<svg width="32" height="32" viewBox="0 0 32 32" fill="none" xmlns="http://www.w3.org/2000/svg">
<path d="M20.7853 16.348C24.5629 16.348 27.6253 13.2856 27.6253 9.50798C27.6253 5.73035 24.5629 2.66797 20.7853 2.66797C17.0077 2.66797 13.9453 5.73035 13.9453 9.50798C13.9453 13.2856 17.0077 16.348 20.7853 16.348Z" stroke="white" stroke-width="2.66667" stroke-miterlimit="10"/>
<path d="M8.48165 25.9204C10.7496 25.9204 12.5884 24.0818 12.5884 21.8137C12.5884 19.5457 10.7496 17.707 8.48165 17.707C6.2136 17.707 4.375 19.5457 4.375 21.8137C4.375 24.0818 6.2136 25.9204 8.48165 25.9204Z" stroke="white" stroke-width="2.66667" stroke-miterlimit="10"/>
<path d="M22.1633 29.3345C24.0485 29.3345 25.5767 27.8063 25.5767 25.9212C25.5767 24.036 24.0485 22.5078 22.1633 22.5078C20.2782 22.5078 18.75 24.036 18.75 25.9212C18.75 27.8063 20.2782 29.3345 22.1633 29.3345Z" stroke="white" stroke-width="2.66667" stroke-miterlimit="10"/>
</svg>
