<svg width="32" height="32" viewBox="0 0 32 32" fill="none" xmlns="http://www.w3.org/2000/svg">
<path d="M16 20C18.2091 20 20 18.2091 20 16C20 13.7909 18.2091 12 16 12C13.7909 12 12 13.7909 12 16C12 18.2091 13.7909 20 16 20Z" stroke="white" stroke-width="2.66667" stroke-miterlimit="10" stroke-linecap="round" stroke-linejoin="round"/>
<path d="M2.66406 17.1726V14.8259C2.66406 13.4392 3.7974 12.2926 5.1974 12.2926C7.61073 12.2926 8.5974 10.5859 7.38406 8.4926C6.69073 7.2926 7.10406 5.73259 8.3174 5.03926L10.6241 3.71927C11.6774 3.0926 13.0374 3.46593 13.6641 4.51926L13.8108 4.7726C15.0108 6.86593 16.9841 6.86593 18.1974 4.7726L18.3441 4.51926C18.9708 3.46593 20.3308 3.0926 21.3841 3.71927L23.6908 5.03926C24.9041 5.73259 25.3174 7.2926 24.6241 8.4926C23.4108 10.5859 24.3974 12.2926 26.8108 12.2926C28.1974 12.2926 29.3441 13.4259 29.3441 14.8259V17.1726C29.3441 18.5592 28.2108 19.7059 26.8108 19.7059C24.3974 19.7059 23.4108 21.4126 24.6241 23.5059C25.3174 24.7192 24.9041 26.2659 23.6908 26.9592L21.3841 28.2792C20.3308 28.9059 18.9708 28.5326 18.3441 27.4792L18.1974 27.2259C16.9974 25.1326 15.0241 25.1326 13.8108 27.2259L13.6641 27.4792C13.0374 28.5326 11.6774 28.9059 10.6241 28.2792L8.3174 26.9592C7.10406 26.2659 6.69073 24.7059 7.38406 23.5059C8.5974 21.4126 7.61073 19.7059 5.1974 19.7059C3.7974 19.7059 2.66406 18.5592 2.66406 17.1726Z" stroke="white" stroke-width="2.66667" stroke-miterlimit="10" stroke-linecap="round" stroke-linejoin="round"/>
</svg>
