<svg width="42" height="44" viewBox="0 0 42 44" fill="none" xmlns="http://www.w3.org/2000/svg">
<path d="M16.3366 23.1471C16.784 22.6828 17.4107 22.3922 18.1049 22.3922C18.4217 22.3922 18.7237 22.4545 19.002 22.5641C18.8537 22.2437 18.7768 21.8948 18.7765 21.5417C18.7765 21.2161 18.8415 20.9058 18.957 20.621C18.5869 20.3674 18.2927 20.0178 18.1062 19.6097C17.9242 19.5563 17.7356 19.5291 17.546 19.5288C16.4361 19.5288 15.5331 20.4318 15.5331 21.5417C15.5331 22.1975 15.8496 22.7793 16.3366 23.1471ZM18.5767 19.5592C18.7215 19.8206 18.9223 20.0467 19.1647 20.2213C19.1919 20.1788 19.2207 20.1376 19.2504 20.097C19.2945 20.0365 19.3411 19.9782 19.3904 19.922C19.8412 19.4093 20.4999 19.0837 21.2348 19.0837C21.4341 19.0837 21.6271 19.1101 21.8129 19.1552C21.9275 18.8431 22.1042 18.5575 22.3324 18.3157C22.1975 17.3359 21.3568 16.5779 20.3405 16.5779C19.2306 16.5779 18.3276 17.481 18.3276 18.5909C18.3276 18.824 18.3694 19.047 18.4426 19.2554C18.4788 19.3602 18.5237 19.4618 18.5767 19.5592ZM22.4253 19.3927C22.4914 19.4295 22.5559 19.4689 22.6181 19.5114C23.2406 19.9369 23.6559 20.6413 23.6881 21.4429C23.9352 21.3612 24.1937 21.3194 24.454 21.3191C24.801 21.3191 25.1311 21.3923 25.4306 21.5226C25.859 21.1532 26.1317 20.6078 26.1317 19.9992C26.1317 18.8892 25.2286 17.9862 24.1187 17.9862C23.6109 17.9862 23.148 18.1766 22.7934 18.4878C22.713 18.5576 22.6383 18.6336 22.5698 18.7152C22.426 18.8892 22.3125 19.0863 22.2341 19.2981C22.2993 19.3272 22.3633 19.3582 22.4253 19.3927ZM19.9054 23.9556C19.732 23.6085 19.4624 23.3186 19.1288 23.1204C19.0609 23.08 18.9909 23.0429 18.9181 23.0106C18.6622 22.8965 18.3851 22.8376 18.1049 22.8375C17.5745 22.8375 17.0928 23.0452 16.7328 23.3818C16.6199 23.4864 16.5194 23.6035 16.4331 23.7308C16.2103 24.0617 16.0915 24.4516 16.0919 24.8505C16.0919 25.9604 16.995 26.8635 18.1049 26.8635C18.6816 26.8635 19.2009 26.6184 19.5682 26.2285C19.4739 25.9657 19.4255 25.6886 19.4249 25.4094C19.4249 24.8651 19.6049 24.3633 19.9054 23.9556Z" fill="#400186"/>
<path d="M22.4106 19.9111C22.3508 19.8677 22.2887 19.8275 22.2246 19.7908C22.1917 19.7725 22.1583 19.7551 22.1245 19.7386C22.0913 19.7222 22.0586 19.705 22.0245 19.6904C21.9883 19.6749 21.9505 19.6623 21.9133 19.6489C21.8428 19.6235 21.771 19.602 21.6982 19.5847C21.5465 19.548 21.391 19.5292 21.2349 19.5287C20.5969 19.5287 20.0285 19.8279 19.6594 20.2923C19.621 20.3405 19.5848 20.3903 19.5509 20.4419C19.54 20.4585 19.5303 20.4758 19.52 20.4928C19.4914 20.5394 19.4645 20.5868 19.4397 20.6358C19.4226 20.6694 19.4057 20.703 19.3905 20.7378C19.376 20.7709 19.3637 20.8051 19.351 20.8392C19.2661 21.0637 19.2224 21.3017 19.2219 21.5417C19.2219 21.8275 19.2827 22.0992 19.3905 22.3457C19.4278 22.4308 19.4718 22.5121 19.52 22.5905C19.5624 22.6601 19.609 22.7271 19.6595 22.7911C19.8729 23.0602 20.1513 23.2706 20.4686 23.4023C20.869 23.1191 21.3563 22.951 21.8831 22.951C21.9689 22.951 22.0536 22.9556 22.137 22.9642C22.3142 22.4596 22.6509 22.0263 23.0961 21.7299C23.1437 21.6983 23.193 21.6691 23.2429 21.6407C23.2444 21.6076 23.2478 21.575 23.2478 21.5416C23.2479 20.8708 22.9167 20.2771 22.4106 19.9111ZM22.0009 23.8761C21.9995 23.8431 21.9958 23.8107 21.9958 23.7773C21.9958 23.7307 22.0003 23.6851 22.0028 23.639C22.0073 23.5594 22.0154 23.481 22.0273 23.4036C22.0186 23.403 22.0098 23.4028 22.0011 23.4023C21.9618 23.3999 21.9228 23.3962 21.883 23.3962C21.6118 23.3962 21.3531 23.4509 21.1168 23.5487C20.9977 23.5979 20.8837 23.6586 20.7762 23.7297C20.6981 23.7818 20.6237 23.8393 20.5536 23.9018C20.4413 24.0009 20.3402 24.1122 20.2524 24.2337C20.1899 24.3201 20.1344 24.4114 20.0863 24.5067C19.9444 24.7864 19.8703 25.0955 19.8701 25.4092C19.8701 25.5266 19.8823 25.6409 19.9016 25.7528C19.9347 25.9444 19.9957 26.1301 20.0826 26.304C20.4129 26.9656 21.0948 27.4221 21.8829 27.4221C22.7373 27.4221 23.4672 26.8863 23.759 26.1338C22.7718 25.8422 22.0437 24.9463 22.0009 23.8761Z" fill="#400186"/>
<path d="M25.4766 22.0465C25.4025 22.0018 25.3255 21.9619 25.2462 21.9272C25.1509 21.887 25.0526 21.8542 24.9521 21.8292C24.7895 21.7866 24.6221 21.7648 24.454 21.7642C24.1719 21.7642 23.9035 21.823 23.6596 21.9282C23.6463 21.9339 23.6337 21.941 23.6206 21.947C23.5473 21.9807 23.4761 22.0188 23.4073 22.061C23.3882 22.0728 23.3686 22.0836 23.3499 22.0959C23.2773 22.144 23.2079 22.1967 23.1422 22.2537C23.1285 22.2655 23.1154 22.278 23.1019 22.2903C22.8769 22.4944 22.7009 22.7467 22.587 23.0283C22.5838 23.0363 22.5813 23.0445 22.5781 23.0526C22.5514 23.1218 22.5286 23.1924 22.5098 23.2642C22.498 23.3089 22.4865 23.3536 22.4778 23.3995C22.4726 23.427 22.4692 23.4549 22.4651 23.4828C22.4556 23.5475 22.4493 23.6127 22.4461 23.6781C22.4444 23.7111 22.441 23.7437 22.441 23.7772C22.441 24.6848 23.0451 25.4533 23.8721 25.7036C24.0147 25.7461 24.1615 25.7727 24.3099 25.7828C24.3577 25.7862 24.4054 25.79 24.4541 25.79C25.5639 25.79 26.467 24.887 26.467 23.7771C26.467 23.041 26.0683 22.3975 25.4766 22.0465Z" fill="#400186"/>
<path d="M36.6793 20.1996C36.9756 19.7855 37.2575 19.3721 37.5179 18.9607C40.0365 14.9801 40.5557 11.5572 38.98 9.32256C37.2497 6.8682 33.2983 6.42349 28.4041 7.7227C26.6456 2.97222 24.0035 0 21 0C17.5537 0 14.583 3.91257 12.8774 9.93578C11.7733 9.81257 10.7043 9.7469 9.68588 9.7469C9.62825 9.7469 9.57033 9.74709 9.5131 9.74748C4.80268 9.78075 1.64245 11.1943 0.614395 13.7281C-0.413662 16.2617 0.867989 19.4779 4.22331 22.7839C4.57014 23.1257 4.9384 23.4644 5.32074 23.8004C5.02445 24.2145 4.74253 24.6279 4.48224 25.0393C1.96366 29.02 1.44445 32.4429 3.02015 34.6774C4.10942 36.2224 6.06968 37.015 8.69459 37.015C9.86662 37.015 11.1713 36.857 12.5894 36.5374C12.9219 36.4625 13.2593 36.3765 13.599 36.2854C15.3575 41.0311 17.9984 43.9999 21.0001 43.9999C24.4464 43.9999 27.4171 40.0874 29.1227 34.0643C30.2268 34.1875 31.2956 34.2531 32.3142 34.2531C32.3719 34.2531 32.4299 34.2529 32.4873 34.2525C37.1976 34.2192 40.3578 32.8055 41.3859 30.2718C42.4139 27.7381 41.1324 24.5219 37.7771 21.2161C37.43 20.8744 37.0618 20.5356 36.6793 20.1996ZM33.2706 8.85883C35.2622 8.85883 36.7243 9.38862 37.4422 10.4066C38.5345 11.9558 37.9825 14.7069 35.9276 17.9546C35.7083 18.3012 35.4707 18.6496 35.2238 18.9985C33.7513 17.8571 32.0877 16.7648 30.2787 15.7523C29.9936 13.4817 29.5558 11.3728 28.9908 9.4835C30.5881 9.06431 32.0322 8.85883 33.2706 8.85883ZM27.735 31.9783C26.669 31.8072 25.5739 31.5816 24.4585 31.3027C25.1724 30.8504 25.8752 30.3808 26.5663 29.8944C27.1686 29.4695 27.7619 29.032 28.3457 28.5822C28.1821 29.7796 27.9775 30.9153 27.735 31.9783ZM25.4821 28.3568C24.3492 29.1561 23.1835 29.9076 21.9879 30.6096C20.6649 30.1968 19.3597 29.729 18.0756 29.2074C16.4684 28.5552 14.9262 27.8346 13.4737 27.0618C13.3118 25.4689 13.2219 23.779 13.2219 22.0001C13.2219 20.6294 13.2765 19.3129 13.3745 18.0508C14.39 17.207 15.4386 16.4039 16.5179 15.6433C17.6966 14.8123 18.8618 14.0625 20.0043 13.3893C21.3301 13.8022 22.638 14.2705 23.9246 14.7929C25.5317 15.445 27.0739 16.1657 28.5264 16.9384C28.6883 18.5313 28.7781 20.2213 28.7781 22.0001C28.7781 23.3709 28.7235 24.6872 28.6255 25.9494C27.61 26.7931 26.5613 27.5962 25.4821 28.3568ZM13.7603 29.3227C14.9416 29.9113 16.1451 30.4544 17.3681 30.9508C18.151 31.2678 18.9414 31.5657 19.7388 31.8442C18.0527 32.7082 16.3868 33.4203 14.7842 33.9607C14.3705 32.5625 14.0216 31.0124 13.7603 29.3227ZM11.4881 25.9365C10.1976 25.1609 8.99834 24.3456 7.91324 23.5028C8.9218 22.26 10.0893 21.0185 11.386 19.8053C11.3556 20.5365 11.3404 21.2683 11.3404 22.0001C11.3404 23.3471 11.391 24.6622 11.4881 25.9365ZM14.2647 12.0228C15.3301 12.194 16.4246 12.4187 17.5397 12.6973C16.8265 13.1497 16.1243 13.6193 15.4338 14.1055C14.8314 14.5304 14.2382 14.9679 13.6543 15.4177C13.8178 14.2209 14.0224 13.0855 14.2647 12.0228ZM28.2397 14.6774C27.0584 14.0888 25.855 13.5457 24.632 13.0493C23.8443 12.7305 23.049 12.4309 22.2467 12.1509C23.9882 11.2536 25.6554 10.546 27.2102 10.0206C27.6263 11.4236 27.9772 12.9802 28.2397 14.6774ZM30.5119 18.0636C31.8023 18.8392 33.0016 19.6544 34.0867 20.4972C33.0783 21.74 31.9107 22.9815 30.6139 24.1947C30.644 23.4737 30.6597 22.7419 30.6597 22C30.6604 20.6865 30.611 19.3734 30.5119 18.0636ZM21 1.88159C23.0204 1.88159 25.1167 4.22341 26.6236 8.25793C24.4531 8.98592 22.1392 10.0262 19.7794 11.356C18.0596 10.853 16.3683 10.4644 14.738 10.1943C16.2496 4.98099 18.6751 1.88159 21 1.88159ZM5.54387 21.4437C2.80633 18.7464 1.64517 16.192 2.35783 14.4356C3.07059 12.679 5.68337 11.6561 9.52639 11.6292C9.5801 11.6288 9.63381 11.6286 9.68753 11.6286C10.558 11.6286 11.4698 11.6807 12.4105 11.7774C12.036 13.4379 11.7515 15.2275 11.5703 17.1154C9.6234 18.789 7.89694 20.5412 6.46589 22.301C6.14623 22.017 5.83598 21.7315 5.54387 21.4437ZM12.1758 34.7018C8.42712 35.5469 5.65029 35.1424 4.55762 33.5934C3.46544 32.0442 4.01735 29.2931 6.0723 26.0454C6.29155 25.6988 6.52904 25.3504 6.77595 25.0015C8.24852 26.1429 9.91212 27.2352 11.721 28.2477C12.0053 30.5111 12.4412 32.614 13.0036 34.4986C12.7251 34.5718 12.4488 34.6403 12.1758 34.7018ZM21 42.1184C18.9801 42.1184 16.8843 39.7779 15.3775 35.7452C17.5868 35 19.9021 33.9512 22.2213 32.6444C23.9409 33.1473 25.6319 33.5359 27.2621 33.806C25.7503 39.0192 23.3248 42.1184 21 42.1184ZM39.6422 29.5644C38.9295 31.3209 36.3167 32.3439 32.4739 32.371C31.5535 32.3775 30.5875 32.3253 29.5895 32.223C29.9639 30.5624 30.2486 28.7727 30.4298 26.8846C32.3766 25.211 34.1031 23.4588 35.5342 21.699C35.8538 21.983 36.1642 22.2685 36.4564 22.5564C39.1936 25.2536 40.3548 27.808 39.6422 29.5644Z" fill="#400186"/>
</svg>
