<svg width="62" height="62" viewBox="0 0 62 62" fill="none" xmlns="http://www.w3.org/2000/svg">
<path fill-rule="evenodd" clip-rule="evenodd" d="M33.1584 33.352L38.9184 25.3097C39.5166 24.4745 40.6895 24.2805 41.5248 24.8788C42.36 25.477 42.554 26.6499 41.9558 27.4852L34.2518 38.2416C34.2361 38.2632 34.2285 38.2896 34.2303 38.3162C34.2321 38.3429 34.2432 38.368 34.2617 38.3873C34.2799 38.4068 34.3044 38.4194 34.3309 38.4227C34.3574 38.4261 34.3842 38.42 34.4067 38.4055C38.6496 35.724 42.7562 32.8584 46.771 29.8348C46.7845 29.8249 46.7956 29.812 46.8035 29.7972C46.8114 29.7825 46.8159 29.7661 46.8166 29.7493C47.0041 26.3859 46.3649 23.5008 44.4734 21.6832C39.3022 16.7144 33.3215 18.1625 28.5737 22.1324C28.5382 22.162 28.4914 22.1678 28.4498 22.1476C28.4083 22.1274 28.3839 22.0871 28.3852 22.0409C28.4429 20.1108 28.402 18.2783 28.2554 16.5508C28.2537 16.5337 28.2559 16.5165 28.262 16.5004C28.268 16.4844 28.2777 16.4699 28.2902 16.4583C28.316 16.4335 28.3485 16.4227 28.384 16.427C30.2714 16.6611 32.7036 16.1098 35.0234 14.7706C37.6997 13.2254 39.5427 11.0262 40.0507 9.04901C40.0581 9.01988 40.0538 8.98901 40.0388 8.96299C40.0237 8.93696 39.9991 8.91786 39.9702 8.90975C38.0039 8.36118 35.1777 8.85755 32.5015 10.4027C30.5841 11.5097 29.0945 12.9525 28.217 14.4089C28.2049 14.4294 28.1868 14.4455 28.165 14.4551C28.1433 14.4646 28.1192 14.4671 28.0959 14.4622C28.0726 14.4578 28.0513 14.4461 28.035 14.4289C28.0186 14.4117 28.0081 14.3898 28.0049 14.3663C27.6187 11.7268 26.9468 9.34958 25.9403 7.2489C25.8421 7.0435 25.6663 6.88555 25.4515 6.80979C25.2368 6.73402 25.0008 6.74666 24.7954 6.84491C24.59 6.94316 24.4321 7.11897 24.3563 7.33368C24.2806 7.54839 24.2932 7.7844 24.3914 7.9898C26.3727 12.1246 26.8232 17.3013 26.6603 22.1937C26.6598 22.2154 26.6531 22.2365 26.641 22.2545C26.6289 22.2724 26.6119 22.2865 26.5919 22.2951C26.5722 22.3041 26.5503 22.3072 26.5288 22.304C26.5073 22.3009 26.4872 22.2915 26.4709 22.2772C21.6962 18.1986 15.6341 16.6548 10.4006 21.6834C5.33214 26.5537 9.30411 39.3558 14.1387 48.3063C14.1511 48.3295 14.171 48.3476 14.1952 48.3578C14.2194 48.3679 14.2464 48.3694 14.2715 48.362C16.9402 47.596 19.7222 46.4031 22.137 45.261C22.1568 45.2519 22.1736 45.2372 22.1853 45.2188C22.197 45.2003 22.203 45.1789 22.2027 45.1571V42.5035C22.2027 41.0936 21.8137 39.8826 20.9928 38.7363L12.9345 27.4852C12.3363 26.6499 12.5301 25.4771 13.3655 24.8788C14.2007 24.2807 15.3735 24.4745 15.9718 25.3097L21.7319 33.352C23.0791 35.2331 25.0697 36.2558 27.3836 36.2558H27.5071C29.8207 36.256 31.8111 35.2332 33.1584 33.352ZM31.9367 47.0288C36.2892 44.4712 40.5273 41.6807 44.6648 38.7773C44.6846 38.7631 44.7084 38.7557 44.7327 38.7561C44.757 38.7565 44.7806 38.7647 44.7999 38.7795C44.8194 38.7939 44.8338 38.8142 44.841 38.8374C44.8482 38.8606 44.8477 38.8855 44.8397 38.9085C43.0634 44.1235 40.3815 49.3042 37.9381 52.8671C36.959 54.2946 35.5103 55.1072 33.7817 55.1987C32.2617 55.2791 30.8981 54.7821 29.8269 53.7661C28.4875 52.496 26.3896 52.5013 25.0568 53.7784C23.984 54.8065 22.615 55.3104 21.0871 55.2314C19.8771 55.1688 18.8039 54.7528 17.9324 54.0196C17.9167 54.0067 17.9047 53.9898 17.8978 53.9707C17.891 53.9516 17.8894 53.9309 17.8933 53.911C17.8967 53.8909 17.9055 53.8722 17.9187 53.8567C17.9319 53.8412 17.9491 53.8296 17.9684 53.8232C22.7771 52.1343 27.5527 49.6051 31.9367 47.0288ZM51.24 28.5727C51.2544 28.5617 51.2659 28.5475 51.2736 28.5311C51.2813 28.5147 51.2849 28.4967 51.2841 28.4787C51.2838 28.4606 51.2792 28.4428 51.2706 28.4269C51.2619 28.4109 51.2495 28.3974 51.2345 28.3873L48.8797 26.7608C48.8765 26.7586 48.8734 26.7562 48.8704 26.7537C48.5035 26.4405 48.5721 25.5971 49.2829 25.4564L49.2849 25.4561L57.6095 23.6608L57.6127 23.6601C58.2663 23.5001 58.7009 24.112 58.5586 24.5897L58.5572 24.5944L55.745 32.7426C55.744 32.7453 55.7432 32.7481 55.7425 32.7509C55.5233 33.5855 54.6722 33.4373 54.4487 33.1643C54.4447 33.1594 54.4411 33.1542 54.438 33.1488L53.028 30.6998C53.0114 30.6709 52.9861 30.6523 52.9536 30.645C52.9211 30.6377 52.8904 30.6436 52.863 30.6626C50.7145 32.1793 31.7371 47.0894 17.5765 52.1329C7.12964 55.8538 -0.30974 54.3178 5.38496 43.4921C5.39821 43.4659 5.42106 43.4457 5.44876 43.4359C5.47646 43.426 5.50689 43.4272 5.53375 43.4392C5.5606 43.4511 5.58181 43.473 5.59299 43.5002C5.60417 43.5274 5.60445 43.5578 5.59378 43.5852C0.362092 58.1774 24.1465 49.8334 51.24 28.5727ZM27.4451 25.5021C29.5083 25.5021 31.1809 27.1747 31.1809 29.2379C31.1809 31.3013 29.5083 32.9739 27.4451 32.9739C25.3817 32.9739 23.7091 31.3013 23.7091 29.2379C23.7091 27.1747 25.3817 25.5021 27.4451 25.5021Z" fill="#400186"/>
</svg>
