<svg width="53" height="54" viewBox="0 0 53 54" fill="none" xmlns="http://www.w3.org/2000/svg">
<path d="M36.389 26.1762C36.5417 26.6657 36.6192 27.1756 36.6187 27.6884C36.6187 30.0299 35.0268 32.0016 32.8645 32.578M32.8644 42.2879C35.0268 42.8642 36.6186 44.8345 36.6186 47.1774C36.6186 49.9725 34.3537 52.2375 31.5585 52.2375C28.7648 52.2375 26.4999 49.9726 26.4999 47.1774V27.6884C26.4999 25.9309 27.3955 24.3828 28.7549 23.4758" stroke="#400186" stroke-width="2" stroke-miterlimit="10" stroke-linecap="round" stroke-linejoin="round"/>
<path d="M36.4915 28.821C36.5334 28.8195 36.5753 28.8195 36.6186 28.8195C39.4136 28.8195 41.6787 31.0859 41.6787 33.8796C41.6787 35.2577 41.1283 36.5072 40.2342 37.4201C41.1283 38.333 41.6787 39.5825 41.6787 40.9605C41.6787 43.7542 39.4137 46.0206 36.6186 46.0206C36.5738 46.0206 36.529 46.0206 36.4842 46.0192M20.1355 32.5782C17.9731 32.0019 16.3813 30.0315 16.3813 27.6886C16.3813 24.8936 18.6463 22.6285 21.4414 22.6285C24.2351 22.6285 26.5001 24.8935 26.5001 27.6886V47.1778C26.5001 49.9728 24.2351 52.2378 21.4414 52.2378C18.6464 52.2378 16.3813 49.9729 16.3813 47.1778C16.3813 44.8362 17.9732 42.8645 20.1355 42.2882" stroke="#400186" stroke-width="2" stroke-miterlimit="10" stroke-linecap="round" stroke-linejoin="round"/>
<path d="M16.5085 46.045C16.4666 46.0465 16.4247 46.0465 16.3814 46.0465C13.5863 46.0465 11.3213 43.7801 11.3213 40.9864C11.3213 39.6084 11.8716 38.3589 12.7658 37.4459C11.8716 36.533 11.3213 35.2835 11.3213 33.9055C11.3213 31.1118 13.5862 28.8454 16.3814 28.8454C16.4262 28.8452 16.471 28.8456 16.5157 28.8468M46.5145 22.5903C48.3938 23.8113 49.8898 25.5055 50.8406 27.49C52.7468 31.4688 51.838 35.2303 51.3587 36.6629M44.2296 26.1074C44.8834 26.532 46.2053 27.522 47.0582 29.3021C48.3922 32.0865 47.5837 34.7274 47.3814 35.3322M6.48553 22.5903C4.6062 23.8113 3.1102 25.5055 2.15945 27.49C0.253168 31.4688 1.16204 35.2303 1.64126 36.6629M8.77037 26.1074C8.11659 26.532 6.79474 27.522 5.94184 29.3021C4.60775 32.0865 5.41629 34.7274 5.61863 35.3322M30.5203 7.21001H26.8185V2.43032C26.8185 1.23307 25.2096 0.844346 24.663 1.90944L20.6378 9.75223C19.9306 11.1301 20.9312 12.7682 22.4798 12.7682H26.1816V17.548C26.1816 18.7452 27.7905 19.1339 28.3371 18.0689L32.3623 10.2261C33.0695 8.84812 32.0689 7.21001 30.5203 7.21001ZM12.698 12.0404L10.9197 13.8187L8.62359 11.5225C8.04849 10.9474 7.08872 11.5335 7.33781 12.3078L9.17173 18.009C9.4939 19.0107 10.7614 19.3169 11.5054 18.5729L13.2837 16.7947L15.5798 19.0908C16.1549 19.6659 17.1147 19.0798 16.8656 18.3055L15.0316 12.6043C14.7095 11.6027 13.4419 11.2964 12.698 12.0404ZM40.302 12.0404L42.0803 13.8187L44.3764 11.5225C44.9515 10.9474 45.9113 11.5335 45.6622 12.3078L43.8283 18.009C43.5061 19.0107 42.2386 19.3169 41.4946 18.5729L39.7163 16.7947L37.4202 19.0908C36.8451 19.6659 35.8853 19.0798 36.1344 18.3055L37.9684 12.6043C38.2905 11.6027 39.5581 11.2964 40.302 12.0404Z" stroke="#400186" stroke-width="2" stroke-miterlimit="10" stroke-linecap="round" stroke-linejoin="round"/>
</svg>
