<svg width="50" height="55" viewBox="0 0 50 55" fill="none" xmlns="http://www.w3.org/2000/svg">
<path d="M38.3607 13.3371C35.7485 11.0098 32.366 9.52876 28.6428 9.3259C28.4635 9.31614 28.3135 9.46135 28.3135 9.6409V12.2871M31.887 47.4117V45.1982C31.887 44.2956 32.6186 43.564 33.5211 43.564H37.7367C40.2787 43.564 42.3392 41.5033 42.3392 38.9615V33.8392C42.3392 33.6569 42.4116 33.4822 42.5405 33.3533C42.6693 33.2245 42.8441 33.1521 43.0263 33.1521H44.0932C45.4554 33.1521 46.2905 31.6587 45.5771 30.4981L43.9358 27.8279C43.7072 27.456 43.6102 27.0203 43.6466 26.5853C43.6835 26.1428 43.7025 25.695 43.7025 25.2428C43.7025 21.2132 42.2066 17.5333 39.7408 14.7266M28.3135 15.962V18.0069C28.3135 18.0904 28.2803 18.1705 28.2212 18.2296C28.1622 18.2887 28.082 18.3219 27.9985 18.3219H25.0764V20.8394C25.0764 20.9229 25.0433 21.003 24.9842 21.0621C24.9251 21.1212 24.845 21.1544 24.7614 21.1544H20.489C20.4055 21.1544 20.3253 21.1212 20.2663 21.0621C20.2072 21.003 20.174 20.9229 20.174 20.8394V18.6368C20.174 18.5533 20.1408 18.4732 20.0818 18.4141C20.0227 18.355 19.9426 18.3219 19.859 18.3219H16.3492C16.2656 18.3219 16.1855 18.355 16.1264 18.4141C16.0674 18.4732 16.0342 18.5533 16.0342 18.6368V20.8394C16.0342 20.9229 16.001 21.003 15.9419 21.0621C15.8829 21.1212 15.8027 21.1544 15.7192 21.1544H12.6001C12.4563 21.1544 12.3294 21.2515 12.2944 21.391C11.9895 22.6087 11.8306 23.8584 11.8211 25.1136C11.7801 30.2728 14.1917 34.8688 17.9585 37.8105C18.1541 37.9631 18.3124 38.1584 18.4213 38.3814C18.5302 38.6044 18.5868 38.8493 18.5869 39.0974V47.4117" stroke="#400186" stroke-width="2" stroke-miterlimit="10" stroke-linecap="round" stroke-linejoin="round"/>
<path d="M26.3873 26.7145C25.728 25.7217 24.6009 25.063 23.3265 25.063C22.3762 25.063 21.5099 25.4319 20.856 26.0296C20.1199 26.7025 19.6536 27.6662 19.6536 28.7359V30.913C19.6536 32.9331 21.3065 34.5859 23.3265 34.5859H24.4697M24.5787 28.4588V31.5091M24.5787 29.9839H22.5709M20.9463 47.4118H16.735C16.1333 47.4118 15.6455 47.8996 15.6455 48.5012V52.0941C15.6455 52.6958 16.1332 53.1836 16.735 53.1836H36.1315C36.7332 53.1836 37.221 52.6958 37.221 52.0941V51.0734C37.221 49.0511 35.5817 47.4118 33.5595 47.4118H24.6212M1 17.747V19.9678C1 20.0514 1.03319 20.1315 1.09226 20.1906C1.15133 20.2496 1.23145 20.2828 1.31499 20.2828H3.40905C3.5655 20.2828 3.69528 20.1674 3.72027 20.013C3.84931 19.2162 4.5404 18.6077 5.37366 18.6077C6.20691 18.6077 6.89811 19.2162 7.02705 20.013C7.05204 20.1674 7.18181 20.2828 7.33826 20.2828H9.43232C9.51586 20.2828 9.59598 20.2496 9.65505 20.1906C9.71413 20.1315 9.74731 20.0514 9.74731 19.9678V17.8977C9.74731 17.7187 9.89599 17.5784 10.0749 17.5835C10.2879 17.5893 10.4998 17.5518 10.6977 17.4731C11.3298 17.2259 11.7775 16.6294 11.7941 15.9509C11.8171 15.0066 11.0586 14.2339 10.1196 14.2339C10.1036 14.2339 10.0876 14.2342 10.0718 14.2347C10.0297 14.236 9.9877 14.2289 9.9484 14.2138C9.90911 14.1986 9.87326 14.1757 9.843 14.1464C9.81274 14.117 9.78869 14.0819 9.77227 14.0432C9.75585 14.0044 9.7474 13.9627 9.74742 13.9205V11.8502C9.74742 11.7667 9.71423 11.6865 9.65516 11.6275C9.59609 11.5684 9.51597 11.5352 9.43243 11.5352H7.33847C7.18202 11.5352 7.05225 11.6506 7.02726 11.805C6.89822 12.6019 6.20712 13.2103 5.37387 13.2103C4.54061 13.2103 3.84952 12.6019 3.72048 11.805C3.69549 11.6506 3.56571 11.5352 3.40927 11.5352H1.31499C1.23145 11.5352 1.15133 11.5684 1.09226 11.6275C1.03319 11.6865 1 11.7667 1 11.8502V14.0721M48.1374 15.1625H44.9544C44.8709 15.1625 44.7908 15.1294 44.7317 15.0703C44.6726 15.0112 44.6394 14.9311 44.6394 14.8476V11.6646C44.6394 11.581 44.6726 11.5009 44.7317 11.4418C44.7908 11.3828 44.8709 11.3496 44.9544 11.3496H48.1374C48.221 11.3496 48.3011 11.3828 48.3602 11.4418C48.4192 11.5009 48.4524 11.581 48.4524 11.6646V14.8476C48.4524 14.9311 48.4192 15.0112 48.3602 15.0703C48.3011 15.1294 48.221 15.1625 48.1374 15.1625ZM40.6204 9.06179H37.9821C37.8986 9.06179 37.8184 9.0286 37.7594 8.96953C37.7003 8.91046 37.6671 8.83034 37.6671 8.7468V6.10843C37.6671 6.02489 37.7003 5.94477 37.7594 5.88569C37.8184 5.82662 37.8986 5.79344 37.9821 5.79344H40.6204C40.7039 5.79344 40.784 5.82662 40.8431 5.88569C40.9022 5.94477 40.9354 6.02489 40.9354 6.10843V8.74669C40.9354 8.78807 40.9272 8.82904 40.9114 8.86727C40.8956 8.90549 40.8724 8.94023 40.8431 8.96949C40.8139 8.99875 40.7792 9.02196 40.7409 9.0378C40.7027 9.05364 40.6617 9.06179 40.6204 9.06179ZM31.971 18.9966V20.792C31.971 20.8755 32.0042 20.9556 32.0633 21.0147C32.1223 21.0738 32.2025 21.107 32.286 21.107H39.4258C39.5094 21.107 39.5895 21.0738 39.6485 21.0147C39.7076 20.9556 39.7408 20.8755 39.7408 20.792V18.9966C39.7408 18.843 39.6295 18.7138 39.4783 18.6869C38.7818 18.5629 38.253 17.9543 38.253 17.2222C38.253 16.49 38.7819 15.8814 39.4783 15.7575C39.6295 15.7306 39.7408 15.6013 39.7408 15.4477V13.6522C39.7408 13.5686 39.7076 13.4885 39.6485 13.4294C39.5895 13.3704 39.5094 13.3372 39.4258 13.3372H32.286C32.2025 13.3372 32.1223 13.3704 32.0633 13.4294C32.0042 13.4885 31.971 13.5686 31.971 13.6522V15.4475C31.971 15.6011 32.0823 15.7304 32.2335 15.7572C32.9301 15.8812 33.4588 16.4898 33.4588 17.222C33.4588 17.9541 32.93 18.5628 32.2335 18.6867C32.0823 18.7138 31.971 18.843 31.971 18.9966ZM29.0102 5.13983H25.5004C25.4168 5.13983 25.3367 5.10664 25.2776 5.04757C25.2185 4.9885 25.1854 4.90838 25.1854 4.82484V1.31499C25.1854 1.23145 25.2185 1.15133 25.2776 1.09226C25.3367 1.03319 25.4168 1 25.5004 1H29.0102C29.0937 1 29.1739 1.03319 29.2329 1.09226C29.292 1.15133 29.3252 1.23145 29.3252 1.31499V4.82484C29.3252 4.90838 29.292 4.9885 29.2329 5.04757C29.1739 5.10664 29.0937 5.13983 29.0102 5.13983ZM6.84803 6.22928H4.20976C4.12622 6.22928 4.0461 6.19609 3.98703 6.13702C3.92796 6.07795 3.89477 5.99783 3.89477 5.91429V3.27592C3.89477 3.19238 3.92796 3.11226 3.98703 3.05319C4.0461 2.99411 4.12622 2.96093 4.20976 2.96093H6.84803C6.93157 2.96093 7.01169 2.99411 7.07076 3.05319C7.12983 3.11226 7.16302 3.19238 7.16302 3.27592V5.91418C7.16303 5.95556 7.1549 5.99653 7.13907 6.03476C7.12325 6.07299 7.10005 6.10772 7.0708 6.13698C7.04155 6.16624 7.00682 6.18946 6.96859 6.20529C6.93037 6.22113 6.8894 6.22928 6.84803 6.22928ZM6.87669 28.4536H4.23843C4.15489 28.4536 4.07477 28.4204 4.01569 28.3614C3.95662 28.3023 3.92344 28.2222 3.92344 28.1386V25.5004C3.92344 25.4168 3.95662 25.3367 4.01569 25.2776C4.07477 25.2186 4.15489 25.1854 4.23843 25.1854H6.87669C6.96023 25.1854 7.04035 25.2186 7.09942 25.2776C7.1585 25.3367 7.19168 25.4168 7.19168 25.5004V28.1386C7.19168 28.2222 7.1585 28.3023 7.09942 28.3614C7.04035 28.4204 6.96023 28.4536 6.87669 28.4536ZM15.8903 8.73493H12.3804C12.2969 8.73493 12.2168 8.70175 12.1577 8.64267C12.0986 8.5836 12.0654 8.50348 12.0654 8.41994V4.91009C12.0654 4.82655 12.0986 4.74643 12.1577 4.68736C12.2168 4.62829 12.2969 4.5951 12.3804 4.5951H15.8903C15.9738 4.5951 16.0539 4.62829 16.113 4.68736C16.1721 4.74643 16.2053 4.82655 16.2053 4.91009V8.41994C16.2053 8.50348 16.1721 8.5836 16.113 8.64267C16.0539 8.70175 15.9738 8.73493 15.8903 8.73493ZM9.75655 37.2165H6.24671C6.16317 37.2165 6.08305 37.1833 6.02398 37.1242C5.9649 37.0651 5.93172 36.985 5.93172 36.9015V33.3916C5.93172 33.3081 5.9649 33.228 6.02398 33.1689C6.08305 33.1098 6.16317 33.0766 6.24671 33.0766H9.75655C9.84009 33.0766 9.92021 33.1098 9.97929 33.1689C10.0384 33.228 10.0715 33.3081 10.0715 33.3916V36.9015C10.0715 36.985 10.0384 37.0651 9.97929 37.1242C9.92021 37.1833 9.84009 37.2165 9.75655 37.2165ZM23.1273 13.9642H19.6175C19.5339 13.9642 19.4538 13.931 19.3947 13.872C19.3357 13.8129 19.3025 13.7328 19.3025 13.6492V10.1394C19.3025 10.0558 19.3357 9.97571 19.3947 9.91664C19.4538 9.85757 19.5339 9.82438 19.6175 9.82438H23.1273C23.2109 9.82438 23.291 9.85757 23.35 9.91664C23.4091 9.97571 23.4423 10.0558 23.4423 10.1394V13.6492C23.4423 13.7328 23.4091 13.8129 23.35 13.872C23.291 13.931 23.2109 13.9642 23.1273 13.9642Z" stroke="#400186" stroke-width="2" stroke-miterlimit="10" stroke-linecap="round" stroke-linejoin="round"/>
</svg>
