<svg width="110" height="96" viewBox="0 0 110 96" fill="none" xmlns="http://www.w3.org/2000/svg">
<g opacity="0.3">
<mask id="mask0_71_651" style="mask-type:alpha" maskUnits="userSpaceOnUse" x="0" y="0" width="9" height="9">
<path d="M4.33521 8.70257C6.72948 8.70257 8.67042 6.7544 8.67042 4.35126C8.67042 1.94812 6.72948 0 4.33521 0C1.94094 0 0 1.94812 0 4.35126C0 6.7544 1.94094 8.70257 4.33521 8.70257Z" fill="black"/>
</mask>
<g mask="url(#mask0_71_651)">
<path d="M4.33521 8.70257C6.72948 8.70257 8.67042 6.7544 8.67042 4.35126C8.67042 1.94812 6.72948 0 4.33521 0C1.94094 0 0 1.94812 0 4.35126C0 6.7544 1.94094 8.70257 4.33521 8.70257Z" fill="white" fill-opacity="0.64"/>
</g>
<mask id="mask1_71_651" style="mask-type:alpha" maskUnits="userSpaceOnUse" x="25" y="0" width="9" height="9">
<path d="M29.4436 8.70257C31.8379 8.70257 33.7788 6.7544 33.7788 4.35126C33.7788 1.94812 31.8379 0 29.4436 0C27.0493 0 25.1084 1.94812 25.1084 4.35126C25.1084 6.7544 27.0493 8.70257 29.4436 8.70257Z" fill="black"/>
</mask>
<g mask="url(#mask1_71_651)">
<path d="M29.4436 8.70257C31.8379 8.70257 33.7788 6.7544 33.7788 4.35126C33.7788 1.94812 31.8379 0 29.4436 0C27.0493 0 25.1084 1.94812 25.1084 4.35126C25.1084 6.7544 27.0493 8.70257 29.4436 8.70257Z" fill="white" fill-opacity="0.64"/>
</g>
<mask id="mask2_71_651" style="mask-type:alpha" maskUnits="userSpaceOnUse" x="50" y="0" width="9" height="9">
<path d="M54.5518 8.70257C56.946 8.70257 58.887 6.7544 58.887 4.35126C58.887 1.94812 56.946 0 54.5518 0C52.1575 0 50.2166 1.94812 50.2166 4.35126C50.2166 6.7544 52.1575 8.70257 54.5518 8.70257Z" fill="black"/>
</mask>
<g mask="url(#mask2_71_651)">
<path d="M54.5518 8.70257C56.946 8.70257 58.887 6.7544 58.887 4.35126C58.887 1.94812 56.946 0 54.5518 0C52.1575 0 50.2166 1.94812 50.2166 4.35126C50.2166 6.7544 52.1575 8.70257 54.5518 8.70257Z" fill="white" fill-opacity="0.64"/>
</g>
<mask id="mask3_71_651" style="mask-type:alpha" maskUnits="userSpaceOnUse" x="75" y="0" width="9" height="9">
<path d="M79.6592 8.70257C82.0535 8.70257 83.9944 6.7544 83.9944 4.35126C83.9944 1.94812 82.0535 0 79.6592 0C77.2649 0 75.324 1.94812 75.324 4.35126C75.324 6.7544 77.2649 8.70257 79.6592 8.70257Z" fill="black"/>
</mask>
<g mask="url(#mask3_71_651)">
<path d="M79.6592 8.70257C82.0535 8.70257 83.9944 6.7544 83.9944 4.35126C83.9944 1.94812 82.0535 0 79.6592 0C77.2649 0 75.324 1.94812 75.324 4.35126C75.324 6.7544 77.2649 8.70257 79.6592 8.70257Z" fill="white" fill-opacity="0.64"/>
</g>
<mask id="mask4_71_651" style="mask-type:alpha" maskUnits="userSpaceOnUse" x="100" y="0" width="10" height="9">
<path d="M104.768 8.70257C107.162 8.70257 109.103 6.7544 109.103 4.35126C109.103 1.94812 107.162 0 104.768 0C102.373 0 100.432 1.94812 100.432 4.35126C100.432 6.7544 102.373 8.70257 104.768 8.70257Z" fill="black"/>
</mask>
<g mask="url(#mask4_71_651)">
<path d="M104.768 8.70257C107.162 8.70257 109.103 6.7544 109.103 4.35126C109.103 1.94812 107.162 0 104.768 0C102.373 0 100.432 1.94812 100.432 4.35126C100.432 6.7544 102.373 8.70257 104.768 8.70257Z" fill="white" fill-opacity="0.64"/>
</g>
<mask id="mask5_71_651" style="mask-type:alpha" maskUnits="userSpaceOnUse" x="0" y="21" width="9" height="10">
<path d="M4.33521 30.5492C6.72948 30.5492 8.67042 28.6011 8.67042 26.1979C8.67042 23.7948 6.72948 21.8467 4.33521 21.8467C1.94094 21.8467 0 23.7948 0 26.1979C0 28.6011 1.94094 30.5492 4.33521 30.5492Z" fill="black"/>
</mask>
<g mask="url(#mask5_71_651)">
<path d="M4.33521 30.5492C6.72948 30.5492 8.67042 28.6011 8.67042 26.1979C8.67042 23.7948 6.72948 21.8467 4.33521 21.8467C1.94094 21.8467 0 23.7948 0 26.1979C0 28.6011 1.94094 30.5492 4.33521 30.5492Z" fill="white" fill-opacity="0.64"/>
</g>
<mask id="mask6_71_651" style="mask-type:alpha" maskUnits="userSpaceOnUse" x="25" y="21" width="9" height="10">
<path d="M29.4436 30.5492C31.8379 30.5492 33.7788 28.6011 33.7788 26.1979C33.7788 23.7948 31.8379 21.8467 29.4436 21.8467C27.0493 21.8467 25.1084 23.7948 25.1084 26.1979C25.1084 28.6011 27.0493 30.5492 29.4436 30.5492Z" fill="black"/>
</mask>
<g mask="url(#mask6_71_651)">
<path d="M29.4436 30.5492C31.8379 30.5492 33.7788 28.6011 33.7788 26.1979C33.7788 23.7948 31.8379 21.8467 29.4436 21.8467C27.0493 21.8467 25.1084 23.7948 25.1084 26.1979C25.1084 28.6011 27.0493 30.5492 29.4436 30.5492Z" fill="white" fill-opacity="0.64"/>
</g>
<mask id="mask7_71_651" style="mask-type:alpha" maskUnits="userSpaceOnUse" x="50" y="21" width="9" height="10">
<path d="M54.5518 30.5492C56.946 30.5492 58.887 28.6011 58.887 26.1979C58.887 23.7948 56.946 21.8467 54.5518 21.8467C52.1575 21.8467 50.2166 23.7948 50.2166 26.1979C50.2166 28.6011 52.1575 30.5492 54.5518 30.5492Z" fill="black"/>
</mask>
<g mask="url(#mask7_71_651)">
<path d="M54.5518 30.5492C56.946 30.5492 58.887 28.6011 58.887 26.1979C58.887 23.7948 56.946 21.8467 54.5518 21.8467C52.1575 21.8467 50.2166 23.7948 50.2166 26.1979C50.2166 28.6011 52.1575 30.5492 54.5518 30.5492Z" fill="white" fill-opacity="0.64"/>
</g>
<mask id="mask8_71_651" style="mask-type:alpha" maskUnits="userSpaceOnUse" x="75" y="21" width="9" height="10">
<path d="M79.6592 30.5492C82.0535 30.5492 83.9944 28.6011 83.9944 26.1979C83.9944 23.7948 82.0535 21.8467 79.6592 21.8467C77.2649 21.8467 75.324 23.7948 75.324 26.1979C75.324 28.6011 77.2649 30.5492 79.6592 30.5492Z" fill="black"/>
</mask>
<g mask="url(#mask8_71_651)">
<path d="M79.6592 30.5492C82.0535 30.5492 83.9944 28.6011 83.9944 26.1979C83.9944 23.7948 82.0535 21.8467 79.6592 21.8467C77.2649 21.8467 75.324 23.7948 75.324 26.1979C75.324 28.6011 77.2649 30.5492 79.6592 30.5492Z" fill="white" fill-opacity="0.64"/>
</g>
<mask id="mask9_71_651" style="mask-type:alpha" maskUnits="userSpaceOnUse" x="100" y="21" width="10" height="10">
<path d="M104.768 30.5492C107.162 30.5492 109.103 28.6011 109.103 26.1979C109.103 23.7948 107.162 21.8467 104.768 21.8467C102.373 21.8467 100.432 23.7948 100.432 26.1979C100.432 28.6011 102.373 30.5492 104.768 30.5492Z" fill="black"/>
</mask>
<g mask="url(#mask9_71_651)">
<path d="M104.768 30.5492C107.162 30.5492 109.103 28.6011 109.103 26.1979C109.103 23.7948 107.162 21.8467 104.768 21.8467C102.373 21.8467 100.432 23.7948 100.432 26.1979C100.432 28.6011 102.373 30.5492 104.768 30.5492Z" fill="white" fill-opacity="0.64"/>
</g>
<mask id="mask10_71_651" style="mask-type:alpha" maskUnits="userSpaceOnUse" x="0" y="43" width="9" height="10">
<path d="M4.33521 52.3513C6.72948 52.3513 8.67042 50.4031 8.67042 48C8.67042 45.5968 6.72948 43.6487 4.33521 43.6487C1.94094 43.6487 0 45.5968 0 48C0 50.4031 1.94094 52.3513 4.33521 52.3513Z" fill="black"/>
</mask>
<g mask="url(#mask10_71_651)">
<path d="M4.33521 52.3513C6.72948 52.3513 8.67042 50.4031 8.67042 48C8.67042 45.5968 6.72948 43.6487 4.33521 43.6487C1.94094 43.6487 0 45.5968 0 48C0 50.4031 1.94094 52.3513 4.33521 52.3513Z" fill="white" fill-opacity="0.64"/>
</g>
<mask id="mask11_71_651" style="mask-type:alpha" maskUnits="userSpaceOnUse" x="25" y="43" width="9" height="10">
<path d="M29.4436 52.351C31.8379 52.351 33.7788 50.4029 33.7788 47.9997C33.7788 45.5966 31.8379 43.6484 29.4436 43.6484C27.0493 43.6484 25.1084 45.5966 25.1084 47.9997C25.1084 50.4029 27.0493 52.351 29.4436 52.351Z" fill="black"/>
</mask>
<g mask="url(#mask11_71_651)">
<path d="M29.4436 52.351C31.8379 52.351 33.7788 50.4029 33.7788 47.9997C33.7788 45.5966 31.8379 43.6484 29.4436 43.6484C27.0493 43.6484 25.1084 45.5966 25.1084 47.9997C25.1084 50.4029 27.0493 52.351 29.4436 52.351Z" fill="white" fill-opacity="0.64"/>
</g>
<mask id="mask12_71_651" style="mask-type:alpha" maskUnits="userSpaceOnUse" x="50" y="43" width="9" height="10">
<path d="M54.5518 52.351C56.946 52.351 58.887 50.4029 58.887 47.9997C58.887 45.5966 56.946 43.6484 54.5518 43.6484C52.1575 43.6484 50.2166 45.5966 50.2166 47.9997C50.2166 50.4029 52.1575 52.351 54.5518 52.351Z" fill="black"/>
</mask>
<g mask="url(#mask12_71_651)">
<path d="M54.5518 52.351C56.946 52.351 58.887 50.4029 58.887 47.9997C58.887 45.5966 56.946 43.6484 54.5518 43.6484C52.1575 43.6484 50.2166 45.5966 50.2166 47.9997C50.2166 50.4029 52.1575 52.351 54.5518 52.351Z" fill="white" fill-opacity="0.64"/>
</g>
<mask id="mask13_71_651" style="mask-type:alpha" maskUnits="userSpaceOnUse" x="75" y="43" width="9" height="10">
<path d="M79.6592 52.351C82.0535 52.351 83.9944 50.4029 83.9944 47.9997C83.9944 45.5966 82.0535 43.6484 79.6592 43.6484C77.2649 43.6484 75.324 45.5966 75.324 47.9997C75.324 50.4029 77.2649 52.351 79.6592 52.351Z" fill="black"/>
</mask>
<g mask="url(#mask13_71_651)">
<path d="M79.6592 52.351C82.0535 52.351 83.9944 50.4029 83.9944 47.9997C83.9944 45.5966 82.0535 43.6484 79.6592 43.6484C77.2649 43.6484 75.324 45.5966 75.324 47.9997C75.324 50.4029 77.2649 52.351 79.6592 52.351Z" fill="white" fill-opacity="0.64"/>
</g>
<mask id="mask14_71_651" style="mask-type:alpha" maskUnits="userSpaceOnUse" x="100" y="43" width="10" height="10">
<path d="M104.768 52.3513C107.162 52.3513 109.103 50.4031 109.103 48C109.103 45.5968 107.162 43.6487 104.768 43.6487C102.373 43.6487 100.432 45.5968 100.432 48C100.432 50.4031 102.373 52.3513 104.768 52.3513Z" fill="black"/>
</mask>
<g mask="url(#mask14_71_651)">
<path d="M104.768 52.3513C107.162 52.3513 109.103 50.4031 109.103 48C109.103 45.5968 107.162 43.6487 104.768 43.6487C102.373 43.6487 100.432 45.5968 100.432 48C100.432 50.4031 102.373 52.3513 104.768 52.3513Z" fill="white" fill-opacity="0.64"/>
</g>
<mask id="mask15_71_651" style="mask-type:alpha" maskUnits="userSpaceOnUse" x="0" y="65" width="9" height="10">
<path d="M4.33521 74.1987C6.72948 74.1987 8.67042 72.2505 8.67042 69.8474C8.67042 67.4442 6.72948 65.4961 4.33521 65.4961C1.94094 65.4961 0 67.4442 0 69.8474C0 72.2505 1.94094 74.1987 4.33521 74.1987Z" fill="black"/>
</mask>
<g mask="url(#mask15_71_651)">
<path d="M4.33521 74.1987C6.72948 74.1987 8.67042 72.2505 8.67042 69.8474C8.67042 67.4442 6.72948 65.4961 4.33521 65.4961C1.94094 65.4961 0 67.4442 0 69.8474C0 72.2505 1.94094 74.1987 4.33521 74.1987Z" fill="white" fill-opacity="0.64"/>
</g>
<mask id="mask16_71_651" style="mask-type:alpha" maskUnits="userSpaceOnUse" x="25" y="65" width="9" height="10">
<path d="M29.4436 74.1987C31.8379 74.1987 33.7788 72.2505 33.7788 69.8474C33.7788 67.4442 31.8379 65.4961 29.4436 65.4961C27.0493 65.4961 25.1084 67.4442 25.1084 69.8474C25.1084 72.2505 27.0493 74.1987 29.4436 74.1987Z" fill="black"/>
</mask>
<g mask="url(#mask16_71_651)">
<path d="M29.4436 74.1987C31.8379 74.1987 33.7788 72.2505 33.7788 69.8474C33.7788 67.4442 31.8379 65.4961 29.4436 65.4961C27.0493 65.4961 25.1084 67.4442 25.1084 69.8474C25.1084 72.2505 27.0493 74.1987 29.4436 74.1987Z" fill="white" fill-opacity="0.64"/>
</g>
<mask id="mask17_71_651" style="mask-type:alpha" maskUnits="userSpaceOnUse" x="50" y="65" width="9" height="10">
<path d="M54.5518 74.1987C56.946 74.1987 58.887 72.2505 58.887 69.8474C58.887 67.4442 56.946 65.4961 54.5518 65.4961C52.1575 65.4961 50.2166 67.4442 50.2166 69.8474C50.2166 72.2505 52.1575 74.1987 54.5518 74.1987Z" fill="black"/>
</mask>
<g mask="url(#mask17_71_651)">
<path d="M54.5518 74.1987C56.946 74.1987 58.887 72.2505 58.887 69.8474C58.887 67.4442 56.946 65.4961 54.5518 65.4961C52.1575 65.4961 50.2166 67.4442 50.2166 69.8474C50.2166 72.2505 52.1575 74.1987 54.5518 74.1987Z" fill="white" fill-opacity="0.64"/>
</g>
<mask id="mask18_71_651" style="mask-type:alpha" maskUnits="userSpaceOnUse" x="75" y="65" width="9" height="10">
<path d="M79.6592 74.1987C82.0535 74.1987 83.9944 72.2505 83.9944 69.8474C83.9944 67.4442 82.0535 65.4961 79.6592 65.4961C77.2649 65.4961 75.324 67.4442 75.324 69.8474C75.324 72.2505 77.2649 74.1987 79.6592 74.1987Z" fill="black"/>
</mask>
<g mask="url(#mask18_71_651)">
<path d="M79.6592 74.1987C82.0535 74.1987 83.9944 72.2505 83.9944 69.8474C83.9944 67.4442 82.0535 65.4961 79.6592 65.4961C77.2649 65.4961 75.324 67.4442 75.324 69.8474C75.324 72.2505 77.2649 74.1987 79.6592 74.1987Z" fill="white" fill-opacity="0.64"/>
</g>
<mask id="mask19_71_651" style="mask-type:alpha" maskUnits="userSpaceOnUse" x="100" y="65" width="10" height="10">
<path d="M104.768 74.1987C107.162 74.1987 109.103 72.2505 109.103 69.8474C109.103 67.4442 107.162 65.4961 104.768 65.4961C102.373 65.4961 100.432 67.4442 100.432 69.8474C100.432 72.2505 102.373 74.1987 104.768 74.1987Z" fill="black"/>
</mask>
<g mask="url(#mask19_71_651)">
<path d="M104.768 74.1987C107.162 74.1987 109.103 72.2505 109.103 69.8474C109.103 67.4442 107.162 65.4961 104.768 65.4961C102.373 65.4961 100.432 67.4442 100.432 69.8474C100.432 72.2505 102.373 74.1987 104.768 74.1987Z" fill="white" fill-opacity="0.64"/>
</g>
<mask id="mask20_71_651" style="mask-type:alpha" maskUnits="userSpaceOnUse" x="0" y="87" width="9" height="10">
<path d="M4.33521 96.0004C6.72948 96.0004 8.67042 94.0523 8.67042 91.6492C8.67042 89.246 6.72948 87.2979 4.33521 87.2979C1.94094 87.2979 0 89.246 0 91.6492C0 94.0523 1.94094 96.0004 4.33521 96.0004Z" fill="black"/>
</mask>
<g mask="url(#mask20_71_651)">
<path d="M4.33521 96.0004C6.72948 96.0004 8.67042 94.0523 8.67042 91.6492C8.67042 89.246 6.72948 87.2979 4.33521 87.2979C1.94094 87.2979 0 89.246 0 91.6492C0 94.0523 1.94094 96.0004 4.33521 96.0004Z" fill="white" fill-opacity="0.64"/>
</g>
<mask id="mask21_71_651" style="mask-type:alpha" maskUnits="userSpaceOnUse" x="25" y="87" width="9" height="10">
<path d="M29.4436 96.0004C31.8379 96.0004 33.7788 94.0523 33.7788 91.6492C33.7788 89.246 31.8379 87.2979 29.4436 87.2979C27.0493 87.2979 25.1084 89.246 25.1084 91.6492C25.1084 94.0523 27.0493 96.0004 29.4436 96.0004Z" fill="black"/>
</mask>
<g mask="url(#mask21_71_651)">
<path d="M29.4436 96.0004C31.8379 96.0004 33.7788 94.0523 33.7788 91.6492C33.7788 89.246 31.8379 87.2979 29.4436 87.2979C27.0493 87.2979 25.1084 89.246 25.1084 91.6492C25.1084 94.0523 27.0493 96.0004 29.4436 96.0004Z" fill="white" fill-opacity="0.64"/>
</g>
<mask id="mask22_71_651" style="mask-type:alpha" maskUnits="userSpaceOnUse" x="50" y="87" width="9" height="10">
<path d="M54.5518 96.0004C56.946 96.0004 58.887 94.0523 58.887 91.6492C58.887 89.246 56.946 87.2979 54.5518 87.2979C52.1575 87.2979 50.2166 89.246 50.2166 91.6492C50.2166 94.0523 52.1575 96.0004 54.5518 96.0004Z" fill="black"/>
</mask>
<g mask="url(#mask22_71_651)">
<path d="M54.5518 96.0004C56.946 96.0004 58.887 94.0523 58.887 91.6492C58.887 89.246 56.946 87.2979 54.5518 87.2979C52.1575 87.2979 50.2166 89.246 50.2166 91.6492C50.2166 94.0523 52.1575 96.0004 54.5518 96.0004Z" fill="white" fill-opacity="0.64"/>
</g>
<mask id="mask23_71_651" style="mask-type:alpha" maskUnits="userSpaceOnUse" x="75" y="87" width="9" height="10">
<path d="M79.6592 96.0004C82.0535 96.0004 83.9944 94.0523 83.9944 91.6492C83.9944 89.246 82.0535 87.2979 79.6592 87.2979C77.2649 87.2979 75.324 89.246 75.324 91.6492C75.324 94.0523 77.2649 96.0004 79.6592 96.0004Z" fill="black"/>
</mask>
<g mask="url(#mask23_71_651)">
<path d="M79.6592 96.0004C82.0535 96.0004 83.9944 94.0523 83.9944 91.6492C83.9944 89.246 82.0535 87.2979 79.6592 87.2979C77.2649 87.2979 75.324 89.246 75.324 91.6492C75.324 94.0523 77.2649 96.0004 79.6592 96.0004Z" fill="white" fill-opacity="0.64"/>
</g>
<mask id="mask24_71_651" style="mask-type:alpha" maskUnits="userSpaceOnUse" x="100" y="87" width="10" height="10">
<path d="M104.768 96.0004C107.162 96.0004 109.103 94.0523 109.103 91.6492C109.103 89.246 107.162 87.2979 104.768 87.2979C102.373 87.2979 100.432 89.246 100.432 91.6492C100.432 94.0523 102.373 96.0004 104.768 96.0004Z" fill="black"/>
</mask>
<g mask="url(#mask24_71_651)">
<path d="M104.768 96.0004C107.162 96.0004 109.103 94.0523 109.103 91.6492C109.103 89.246 107.162 87.2979 104.768 87.2979C102.373 87.2979 100.432 89.246 100.432 91.6492C100.432 94.0523 102.373 96.0004 104.768 96.0004Z" fill="white" fill-opacity="0.64"/>
</g>
</g>
</svg>
